<svg width="72" height="72" viewBox="0 0 72 72" fill="none" xmlns="http://www.w3.org/2000/svg">
<path fill-rule="evenodd" clip-rule="evenodd" d="M39.6 62.5573H42C42.6627 62.5573 43.2 63.0858 43.2 63.7376V66.0983C43.2 69.3577 40.5137 71.9999 37.2 71.9999H6C2.68629 71.9999 0 69.3577 0 66.0983V63.7376C0 63.0858 0.537258 62.5573 1.2 62.5573H3.6V37.7704C3.6 37.1185 4.13726 36.5901 4.8 36.5901H15.984C16.6467 36.5901 17.184 37.1185 17.184 37.7704C17.184 38.4223 16.6467 38.9507 15.984 38.9507H6V62.5573H37.2V50.9901C37.2 50.3382 37.7373 49.8098 38.4 49.8098C39.0627 49.8098 39.6 50.3382 39.6 50.9901V62.5573ZM37.2 69.6393C39.1882 69.6393 40.8 68.0539 40.8 66.0983V64.918H2.4V66.0983C2.4 68.0539 4.01178 69.6393 6 69.6393H8.4V68.459C8.4 67.8071 8.93726 67.2786 9.6 67.2786C10.2627 67.2786 10.8 67.8071 10.8 68.459V69.6393H32.4V68.459C32.4 67.8071 32.9373 67.2786 33.6 67.2786C34.2627 67.2786 34.8 67.8071 34.8 68.459V69.6393H37.2Z" fill="black"/>
<path d="M62.4 8.26227H64.8C65.4627 8.26227 66 7.73382 66 7.08194C66 6.43006 65.4627 5.90161 64.8 5.90161H62.4C60.4118 5.90161 58.8 7.48696 58.8 9.4426V10.6229H57.6C56.9373 10.6229 56.4 11.1514 56.4 11.8033C56.4 12.4551 56.9373 12.9836 57.6 12.9836H58.8V16.5246C58.8 17.1764 59.3373 17.7049 60 17.7049C60.6627 17.7049 61.2 17.1764 61.2 16.5246V12.9836H62.4C63.0627 12.9836 63.6 12.4551 63.6 11.8033C63.6 11.1514 63.0627 10.6229 62.4 10.6229H61.2V9.4426C61.2 8.79072 61.7373 8.26227 62.4 8.26227Z" fill="black"/>
<path d="M68.4 1.18042H54C52.0118 1.18042 50.4 2.76577 50.4 4.7214V7.08206C50.4 7.73394 50.9373 8.26239 51.6 8.26239C52.2627 8.26239 52.8 7.73394 52.8 7.08206V4.7214C52.8 4.06953 53.3373 3.54108 54 3.54108H68.4C69.0627 3.54108 69.6 4.06953 69.6 4.7214V18.8853C69.6 19.5372 69.0627 20.0657 68.4 20.0657H54C53.3373 20.0657 52.8 19.5372 52.8 18.8853V11.8034C52.8 11.1515 52.2627 10.623 51.6 10.623C50.9373 10.623 50.4 11.1515 50.4 11.8034V18.8853C50.4 20.841 52.0118 22.4263 54 22.4263H68.4C70.3882 22.4263 72 20.841 72 18.8853V4.7214C72 2.76577 70.3882 1.18042 68.4 1.18042V1.18042Z" fill="black"/>
<path fill-rule="evenodd" clip-rule="evenodd" d="M61.2 53.1147C58.549 53.1147 56.4 51.0009 56.4 48.3934C56.4 45.7859 58.549 43.6721 61.2 43.6721C63.851 43.6721 66 45.7859 66 48.3934C66 51.0009 63.851 53.1147 61.2 53.1147ZM61.2 50.754C62.5255 50.754 63.6 49.6971 63.6 48.3934C63.6 47.0896 62.5255 46.0327 61.2 46.0327C59.8745 46.0327 58.8 47.0896 58.8 48.3934C58.8 49.6971 59.8745 50.754 61.2 50.754Z" fill="black"/>
<path d="M68.4 37.7705H54C52.0118 37.7705 50.4 39.3559 50.4 41.3115V55.4754C50.4 57.4311 52.0118 59.0164 54 59.0164H68.4C70.3882 59.0164 72 57.4311 72 55.4754V53.1148C72 52.4629 71.4627 51.9344 70.8 51.9344C70.1373 51.9344 69.6 52.4629 69.6 53.1148V55.4754C69.6 56.1273 69.0627 56.6558 68.4 56.6558H54C53.3373 56.6558 52.8 56.1273 52.8 55.4754V41.3115C52.8 40.6596 53.3373 40.1312 54 40.1312H68.4C69.0627 40.1312 69.6 40.6596 69.6 41.3115V48.3935C69.6 49.0453 70.1373 49.5738 70.8 49.5738C71.4627 49.5738 72 49.0453 72 48.3935V41.3115C72 39.3559 70.3882 37.7705 68.4 37.7705V37.7705Z" fill="black"/>
<path fill-rule="evenodd" clip-rule="evenodd" d="M27.6 15.3443C27.3753 15.345 27.155 15.2837 26.964 15.1673C26.6124 14.9511 26.3992 14.5718 26.4 14.164V7.08203C26.4013 6.67294 26.6178 6.29366 26.9723 6.07965C27.3267 5.86565 27.7686 5.84744 28.14 6.03154L35.34 9.57252C35.7408 9.77447 35.9928 10.1801 35.9928 10.623C35.9928 11.0659 35.7408 11.4716 35.34 11.6735L28.14 15.2145C27.9728 15.2987 27.7878 15.3432 27.6 15.3443ZM32.112 10.623L28.8 8.99414V12.2518L32.112 10.623Z" fill="black"/>
<path fill-rule="evenodd" clip-rule="evenodd" d="M40.8 10.623C40.8 16.4898 35.9647 21.2459 30 21.2459C24.0353 21.2459 19.2 16.4898 19.2 10.623C19.2 4.75606 24.0353 0 30 0C35.9647 0 40.8 4.75606 40.8 10.623ZM38.4 10.6229C38.4 6.05975 34.6392 2.3606 30 2.3606C25.3608 2.3606 21.6 6.05975 21.6 10.6229C21.6 15.186 25.3608 18.8852 30 18.8852C34.6392 18.8852 38.4 15.186 38.4 10.6229Z" fill="black"/>
<path d="M42 25.9673C42.3777 25.9673 42.7334 25.7924 42.96 25.4952L46.56 20.7738C46.9576 20.2523 46.8502 19.5125 46.32 19.1214C45.7898 18.7303 45.0376 18.836 44.64 19.3575L41.04 24.0788C40.6424 24.6003 40.7498 25.3401 41.28 25.7312C41.4877 25.8845 41.7404 25.9673 42 25.9673Z" fill="black"/>
<path d="M44.64 30.2164C44.8666 30.5137 45.2223 30.6886 45.6 30.6886C45.8596 30.6886 46.1123 30.6057 46.32 30.4525L51.12 26.9115C51.6502 26.5204 51.7576 25.7806 51.36 25.2591C50.9624 24.7376 50.2102 24.6319 49.68 25.023L44.88 28.564C44.3498 28.9551 44.2424 29.6949 44.64 30.2164V30.2164Z" fill="black"/>
<path d="M56.4 32.8131C56.3424 32.4969 56.1562 32.2175 55.8845 32.0393C55.6127 31.8611 55.2789 31.7996 54.96 31.8689L48.96 33.0492C48.2973 33.1144 47.8137 33.6957 47.88 34.3475C47.9463 34.9994 48.5373 35.475 49.2 35.4098H49.44L55.44 34.2295C55.7615 34.1728 56.0456 33.9897 56.2267 33.7224C56.4079 33.4551 56.4704 33.1268 56.4 32.8131V32.8131Z" fill="black"/>
<path fill-rule="evenodd" clip-rule="evenodd" d="M15.6 33.0491H1.2C0.537258 33.0491 0 32.5207 0 31.8688V12.9836C0 12.3317 0.537258 11.8032 1.2 11.8032H15.6C16.2627 11.8032 16.8 12.3317 16.8 12.9836V31.8688C16.8 32.5207 16.2627 33.0491 15.6 33.0491ZM14.4 14.1638H2.4V30.6884H14.4V14.1638Z" fill="black"/>
<path d="M10.8 16.5247H8.4C7.73726 16.5247 7.2 17.0531 7.2 17.705C7.2 18.3569 7.73726 18.8853 8.4 18.8853H10.8C11.4627 18.8853 12 18.3569 12 17.705C12 17.0531 11.4627 16.5247 10.8 16.5247Z" fill="black"/>
<path d="M10.8 21.2458H6C5.33726 21.2458 4.8 21.7743 4.8 22.4262C4.8 23.0781 5.33726 23.6065 6 23.6065H10.8C11.4627 23.6065 12 23.0781 12 22.4262C12 21.7743 11.4627 21.2458 10.8 21.2458Z" fill="black"/>
<path d="M10.8 25.9673H6C5.33726 25.9673 4.8 26.4957 4.8 27.1476C4.8 27.7995 5.33726 28.3279 6 28.3279H10.8C11.4627 28.3279 12 27.7995 12 27.1476C12 26.4957 11.4627 25.9673 10.8 25.9673Z" fill="black"/>
<path fill-rule="evenodd" clip-rule="evenodd" d="M40.944 32.6952C40.7296 32.3283 40.3326 32.1018 39.9024 32.1009C39.4722 32.1001 39.0742 32.3251 38.8584 32.6911C38.6426 33.0571 38.6416 33.5086 38.856 33.8755L44.148 42.8814L24.948 49.9634H24.864H24.768L21.648 51.7338L19.572 52.9142C19.02 53.228 18.3637 53.313 17.748 53.1502C17.1355 52.9875 16.6135 52.5928 16.296 52.0525L13.896 47.9686C13.3098 46.8594 13.7045 45.493 14.796 44.8525L18.948 42.4919L21.948 47.6027C22.1632 47.9693 22.5616 48.1945 22.992 48.1929C23.4216 48.1945 23.8193 47.9702 24.0348 47.6047C24.2503 47.2392 24.2508 46.7883 24.036 46.4224L20.94 41.1581L36 28.9417L36.492 29.7797C36.8234 30.3469 37.5594 30.5424 38.136 30.2165C38.7126 29.8905 38.9114 29.1666 38.58 28.5994L37.38 26.5574C37.202 26.2581 36.8992 26.0509 36.552 25.9909C36.2029 25.9262 35.8425 26.0169 35.568 26.2388L18.768 39.8597L13.656 42.7634C11.7693 43.8443 10.862 46.0414 11.448 48.1102L10.248 48.783C8.98351 49.4973 8.28194 50.8912 8.47121 52.3133C8.66048 53.7354 9.70321 54.9048 11.112 55.2748C11.4174 55.3544 11.7321 55.3941 12.048 55.3929C12.6793 55.3903 13.2992 55.2277 13.848 54.9207L15.048 54.2479C15.6244 54.8337 16.3494 55.2574 17.148 55.4755C17.5581 55.5883 17.9822 55.6439 18.408 55.6407C19.2515 55.6426 20.0801 55.4226 20.808 55.0034L21.852 54.4132L24.252 58.5089C25.2451 60.1977 27.4397 60.7782 29.16 59.8073C29.9879 59.3381 30.5922 58.5644 30.8398 57.6567C31.0874 56.749 30.9579 55.7817 30.48 54.9679L28.296 51.2263L46.296 44.5811C46.6264 44.4589 46.8854 44.1999 47.004 43.8729C47.1222 43.5498 47.0915 43.1922 46.92 42.8932L40.944 32.6952ZM12.6 52.867C12.324 53.0239 11.9959 53.0664 11.688 52.985C11.3806 52.9065 11.1173 52.7112 10.956 52.4421C10.7964 52.1706 10.7533 51.8479 10.836 51.545C10.9187 51.2406 11.1218 50.9813 11.4 50.825L12.444 50.2349L13.644 52.2768L12.6 52.867ZM28.512 57.069C28.5947 56.7662 28.5516 56.4434 28.392 56.172L26.004 52.1353H25.908L23.916 53.2566L26.316 57.3523C26.6496 57.91 27.3776 58.0995 27.948 57.7772C28.2237 57.6236 28.4264 57.3691 28.512 57.069Z" fill="black"/>
</svg>
